# xmcd CD database file
#
# Track frame offsets:
#	150
#	17002
#	25715
#	39837
#	57570
#	66367
#	86430
#	96787
#	108530
#	122940
#	149332
#	162575
#
# Disc length: 2412 seconds
#
# Revision: 4
# Processed by: cddbd v1.5PL3 Copyright (c) Steve Scherf et al.
# Submitted via: CDex 1.51
#
DISCID=a2096a0c
DTITLE=Earl Hooker - The Genius of Earl Hooker
DYEAR=1998
DGENRE=Blues
TTITLE0=Dust My Broom
TTITLE1=Hot And Heavy
TTITLE2=The Screwdriver
TTITLE3=Bertha
TTITLE4=The Foxtrot
TTITLE5=End Of The Blues
TTITLE6=Walking The Floor
TTITLE7=Hooker Special
TTITLE8=Something You Ate
TTITLE9=Two Bugs In A Rug
TTITLE10=Hold On, I'm Coming
TTITLE11=Off The Hook
EXTD=YEAR: 1998
EXTT0=
EXTT1=
EXTT2=
EXTT3=
EXTT4=
EXTT5=
EXTT6=
EXTT7=
EXTT8=
EXTT9=
EXTT10=
EXTT11=
PLAYORDER=
